HIERARCHY
ROOT Hips
{
	OFFSET 0.00000 0.00000 0.00000
	CHANNELS 6 Xposition Yposition Zposition Zrotation Yrotation Xrotation 
	JOINT LHipJoint
	{
		OFFSET 0 0 0
		CHANNELS 3 Zrotation Yrotation Xrotation
		JOINT LeftUpLeg
		{
			OFFSET 1.58161 -1.81893 0.78828
			CHANNELS 3 Zrotation Yrotation Xrotation
			JOINT LeftLeg
			{
				OFFSET 2.53374 -6.96141 0.00000
				CHANNELS 3 Zrotation Yrotation Xrotation
				JOINT LeftFoot
				{
					OFFSET 2.63509 -7.23986 0.00000
					CHANNELS 3 Zrotation Yrotation Xrotation
					JOINT LeftToeBase
					{
						OFFSET 0.14115 -0.38781 2.05350
						CHANNELS 3 Zrotation Yrotation Xrotation
						End Site
						{
							OFFSET 0.00000 -0.00000 1.05543
						}
					}
				}
			}
		}
	}
	JOINT RHipJoint
	{
		OFFSET 0 0 0
		CHANNELS 3 Zrotation Yrotation Xrotation
		JOINT RightUpLeg
		{
			OFFSET -1.11138 -1.81893 0.78828
			CHANNELS 3 Zrotation Yrotation Xrotation
			JOINT RightLeg
			{
				OFFSET -2.58392 -7.09926 0.00000
				CHANNELS 3 Zrotation Yrotation Xrotation
				JOINT RightFoot
				{
					OFFSET -2.66423 -7.31992 0.00000
					CHANNELS 3 Zrotation Yrotation Xrotation
					JOINT RightToeBase
					{
						OFFSET -0.18831 -0.51739 2.12114
						CHANNELS 3 Zrotation Yrotation Xrotation
						End Site
						{
							OFFSET -0.00000 -0.00000 1.09845
						}
					}
				}
			}
		}
	}
	JOINT LowerBack
	{
		OFFSET 0 0 0
		CHANNELS 3 Zrotation Yrotation Xrotation
		JOINT Spine
		{
			OFFSET -0.01511 1.97958 -0.08829
			CHANNELS 3 Zrotation Yrotation Xrotation
			JOINT Spine1
			{
				OFFSET 0.08344 1.97334 -0.04330
				CHANNELS 3 Zrotation Yrotation Xrotation
				JOINT Neck
				{
					OFFSET 0 0 0
					CHANNELS 3 Zrotation Yrotation Xrotation
					JOINT Neck1
					{
						OFFSET 0.00559 1.76246 0.31246
						CHANNELS 3 Zrotation Yrotation Xrotation
						JOINT Head
						{
							OFFSET -0.07011 1.80354 -0.30524
							CHANNELS 3 Zrotation Yrotation Xrotation
							End Site
							{
								OFFSET -0.02385 1.83547 -0.13906
							}
						}
					}
				}
				JOINT LeftShoulder
				{
					OFFSET 0 0 0
					CHANNELS 3 Zrotation Yrotation Xrotation
					JOINT LeftArm
					{
						OFFSET 3.20667 1.30156 -0.60240
						CHANNELS 3 Zrotation Yrotation Xrotation
						JOINT LeftForeArm
						{
							OFFSET 4.95663 -0.00000 0.00000
							CHANNELS 3 Zrotation Yrotation Xrotation
							JOINT LeftHand
							{
								OFFSET 3.38177 -0.00000 0.00000
								CHANNELS 3 Zrotation Yrotation Xrotation
								JOINT LeftFingerBase
								{
									OFFSET 0 0 0
									CHANNELS 3 Zrotation Yrotation Xrotation
									JOINT LeftHandIndex1
									{
										OFFSET 0.66291 -0.00000 0.00000
										CHANNELS 3 Zrotation Yrotation Xrotation
										End Site
										{
											OFFSET 0.53445 -0.00000 0.00000
										}
									}
								}
								JOINT LThumb
								{
									OFFSET 0 0 0
									CHANNELS 3 Zrotation Yrotation Xrotation
									End Site
									{
										OFFSET 0.54261 -0.00000 0.54261
									}
								}
							}
						}
					}
				}
				JOINT RightShoulder
				{
					OFFSET 0 0 0
					CHANNELS 3 Zrotation Yrotation Xrotation
					JOINT RightArm
					{
						OFFSET -3.06877 1.34672 -0.60964
						CHANNELS 3 Zrotation Yrotation Xrotation
						JOINT RightForeArm
						{
							OFFSET -5.08365 -0.00000 0.00000
							CHANNELS 3 Zrotation Yrotation Xrotation
							JOINT RightHand
							{
								OFFSET -3.35984 -0.00000 0.00000
								CHANNELS 3 Zrotation Yrotation Xrotation
								JOINT RightFingerBase
								{
									OFFSET 0 0 0
									CHANNELS 3 Zrotation Yrotation Xrotation
									JOINT RightHandIndex1
									{
										OFFSET -0.82076 -0.00000 0.00000
										CHANNELS 3 Zrotation Yrotation Xrotation
										End Site
										{
											OFFSET -0.66172 -0.00000 0.00000
										}
									}
								}
								JOINT RThumb
								{
									OFFSET 0 0 0
									CHANNELS 3 Zrotation Yrotation Xrotation
									End Site
									{
										OFFSET -0.67182 -0.00000 0.67182
									}
								}
							}
						}
					}
				}
			}
		}
	}
}
MOTION
Frames: 11
Frame Time: .0083333
-10.2637 17.9317 5.5614 -33.6237 76.1010 -18.2999 0.0000 0.0000 0.0000 -5.2410 -0.0013 -29.0559 2.8485 10.4457 30.4324 0.4579 1.2279 -13.2866 0.9135 -6.0900 -17.0457 0.0000 0.0000 0.0000 18.4332 11.7727 -28.9924 -1.9607 -8.7838 25.1213 -0.0487 5.5788 -5.2245 -0.0007 -0.1697 0.4663 -3.7211 1.3557 4.1808 2.1410 1.8287 5.6821 4.2840 0.7837 3.3510 4.4270 2.3755 -12.1495 -5.4931 7.1114 42.3034 -1.8944 3.4152 18.2874 0.0000 -0.0000 0.0000 -100.7441 -22.3321 74.4628 19.2795 -29.7646 -5.1689 -0.0000 0.0000 -47.5734 -0.6904 54.8223 -0.5643 -7.1250 0.0000 -0.0000 -78.2436 71.5612 -58.6207 0.0000 -0.0000 0.0000 96.4441 19.5965 58.2545 -21.5060 32.4142 -6.3190 0.0000 -0.0000 -42.8020 -33.2526 -9.0881 5.9130 7.1250 -0.0000 -0.0000 -5.6024 -40.7457 -0.5898
-10.2624 17.9326 5.5549 -33.8819 76.3417 -18.5513 0.0000 0.0000 0.0000 -5.3057 -0.1683 -29.0697 2.8417 10.4342 30.3947 0.4596 1.0788 -13.2417 0.8571 -5.9040 -16.5061 0.0000 0.0000 0.0000 18.3458 11.5893 -29.0591 -1.9671 -8.7972 25.1631 -0.0515 5.5641 -5.2848 -0.0000 0.0106 -0.0291 -3.6792 1.3788 4.2082 2.1538 1.8587 5.6553 4.2717 0.8015 3.3050 4.4337 2.2946 -12.1009 -5.5152 7.0011 42.2928 -1.9264 3.3744 18.2590 0.0000 0.0000 0.0000 -100.7764 -22.2938 74.5480 19.2864 -29.7731 -5.1723 -0.0000 0.0000 -47.5167 2.0221 55.3497 1.6637 -7.1250 0.0000 -0.0000 -78.7918 72.6140 -60.4169 0.0000 0.0000 0.0000 96.4072 19.5430 58.1247 -21.5508 32.4656 -6.3430 0.0000 -0.0000 -42.9736 -33.3556 -8.9638 5.8560 7.1250 -0.0000 -0.0000 -5.6933 -40.6092 -0.6187
-10.2619 17.9323 5.5483 -34.0589 76.5769 -18.7022 0.0000 0.0000 0.0000 -5.3793 -0.3503 -29.0914 2.8335 10.4205 30.3493 0.4616 0.9366 -13.2079 0.7823 -5.6468 -15.7631 0.0000 0.0000 0.0000 18.2177 11.4812 -29.1204 -1.9720 -8.8075 25.1951 -0.0565 5.4560 -5.3542 -0.0001 0.0650 -0.1787 -3.6248 1.4077 4.2083 2.1366 1.8977 5.6296 4.2216 0.8244 3.2757 4.4438 2.2257 -12.0533 -5.4975 6.8864 42.2651 -1.9407 3.3365 18.2173 0.0000 -0.0000 0.0000 -100.7712 -22.2286 74.5626 19.3161 -29.8095 -5.1870 -0.0000 0.0000 -47.4334 0.9970 55.0201 0.8169 -7.1250 0.0000 -0.0000 -78.1504 72.1918 -59.2900 0.0000 -0.0000 0.0000 96.5529 19.5736 57.9597 -21.4765 32.3803 -6.3032 0.0000 -0.0000 -42.9556 -33.3407 -8.9009 5.8123 7.1250 -0.0000 -0.0000 -5.6794 -40.5335 -0.6278
-10.2609 17.9325 5.5437 -33.9002 76.7476 -18.5078 0.0000 0.0000 0.0000 -5.5041 -0.4333 -29.1332 2.8267 10.4091 30.3120 0.4647 0.8038 -13.1935 0.7520 -5.5389 -15.4523 0.0000 0.0000 0.0000 18.0072 11.5765 -29.1131 -1.9712 -8.8059 25.1900 -0.0636 5.2253 -5.4215 -0.0001 0.0484 -0.1329 -3.7437 1.4298 4.1605 2.1454 1.9265 5.6347 4.2990 0.8334 3.3020 4.4264 2.2079 -12.0349 -5.4885 6.8500 42.1978 -1.9388 3.3211 18.1664 -0.0000 -0.0000 0.0000 -100.7142 -22.2029 74.6256 19.4366 -29.9575 -5.2471 -0.0000 0.0000 -47.6935 1.3283 55.0088 1.0883 -7.1250 0.0000 -0.0000 -77.9868 72.3061 -59.2682 -0.0000 -0.0000 0.0000 96.7139 19.6459 57.8885 -21.3486 32.2330 -6.2348 0.0000 -0.0000 -42.7543 -33.1852 -8.8388 5.7385 7.1250 -0.0000 -0.0000 -5.5405 -40.4448 -0.6245
-10.2594 17.9339 5.5407 -34.0279 76.8266 -18.6438 0.0000 0.0000 0.0000 -5.5507 -0.3422 -29.1749 2.8238 10.4042 30.2960 0.4653 0.6572 -13.1399 0.8145 -5.7590 -16.0868 0.0000 0.0000 0.0000 17.9279 11.7403 -29.0055 -1.9663 -8.7955 25.1577 -0.0722 4.9283 -5.5066 -0.0010 0.2029 -0.5575 -3.7982 1.4646 4.1658 2.1927 1.9717 5.6433 4.3783 0.8533 3.3008 4.3681 2.1998 -12.0035 -5.4601 6.8465 42.1786 -1.9149 3.3165 18.1411 0.0000 0.0000 0.0000 -100.6196 -22.1558 74.9514 19.7083 -30.2892 -5.3834 -0.0000 0.0000 -48.7998 4.6540 55.6930 3.8470 -7.1250 0.0000 -0.0000 -79.0675 73.6030 -61.8495 0.0000 0.0000 0.0000 96.7202 19.6271 57.8711 -21.3016 32.1787 -6.2098 0.0000 -0.0000 -42.5986 -33.0347 -8.6662 5.5960 7.1250 -0.0000 -0.0000 -5.4055 -40.2269 -0.6382
-10.2575 17.9372 5.5363 -34.9361 76.9458 -19.5533 0.0000 0.0000 0.0000 -5.3360 -0.4755 -29.1073 2.8233 10.4034 30.2931 0.4820 0.1894 -13.1862 0.6468 -5.1447 -14.3216 0.0000 0.0000 0.0000 18.0277 11.7713 -28.9185 -1.9601 -8.7826 25.1175 -0.0815 4.6789 -5.6385 -0.0023 0.3083 -0.8470 -3.6438 1.4576 4.1891 2.2582 1.9643 5.6504 4.3590 0.8546 3.2977 4.3539 2.1835 -12.0307 -5.4494 6.8349 42.2262 -1.9092 3.3129 18.1751 0.0000 -0.0000 0.0000 -100.5551 -22.1508 75.0032 19.8365 -30.4449 -5.4483 -0.0000 0.0000 -49.2730 1.0137 55.8831 0.8393 -7.1250 0.0000 -0.0000 -80.8066 72.3475 -62.0762 0.0000 -0.0000 0.0000 96.6445 19.5980 58.0155 -21.3472 32.2314 -6.2341 0.0000 -0.0000 -42.7458 -33.1037 -8.5312 5.5245 7.1250 -0.0000 -0.0000 -5.4655 -40.0743 -0.6659
-10.2559 17.9390 5.5308 -35.6596 77.2017 -20.2349 0.0000 0.0000 0.0000 -5.2293 -0.7488 -29.0968 2.8238 10.4042 30.2958 0.4965 -0.2783 -13.2185 0.4735 -4.4131 -12.2418 0.0000 0.0000 0.0000 18.0102 11.6802 -28.9254 -1.9538 -8.7691 25.0756 -0.0892 4.4826 -5.7571 -0.0052 0.4642 -1.2755 -3.5301 1.4483 4.1652 2.2702 1.9546 5.6430 4.3080 0.8538 3.3066 4.3952 2.1213 -12.0502 -5.4568 6.7337 42.2354 -1.9383 3.2801 18.1789 -0.0000 0.0000 0.0000 -100.5672 -22.1735 74.7143 19.6683 -30.2406 -5.3633 -0.0000 0.0000 -48.3422 0.6506 55.8314 0.5383 -7.1250 0.0000 -0.0000 -80.7676 72.2130 -61.8770 -0.0000 0.0000 0.0000 96.4861 19.5595 58.0990 -21.4365 32.3343 -6.2818 0.0000 -0.0000 -42.8616 -32.9916 -8.6336 5.5662 7.1250 -0.0000 -0.0000 -5.3671 -40.1844 -0.6393
-10.2551 17.9389 5.5257 -35.7615 77.4816 -20.3086 0.0000 0.0000 0.0000 -5.3840 -0.8611 -29.2003 2.8236 10.4038 30.2945 0.4938 -0.4393 -13.1306 0.4834 -4.4585 -12.3702 0.0000 0.0000 0.0000 17.8487 11.5497 -28.9722 -1.9519 -8.7651 25.0632 -0.0923 4.3723 -5.7983 -0.0128 0.7317 -2.0108 -3.5271 1.4827 4.1451 2.2208 2.0016 5.6333 4.2542 0.8785 3.3044 4.4199 2.0372 -12.0591 -5.3803 6.5619 42.2212 -1.9376 3.2272 18.1529 0.0000 -0.0000 0.0000 -100.5362 -22.1764 74.8504 19.5918 -30.1474 -5.3248 -0.0000 0.0000 -48.3510 0.8690 55.3882 0.7152 -7.1250 0.0000 -0.0000 -79.3270 72.2157 -60.4644 0.0000 -0.0000 0.0000 96.4910 19.5720 57.8714 -21.3930 32.2843 -6.2585 0.0000 -0.0000 -42.4152 -32.6625 -8.9719 5.7091 7.1250 -0.0000 -0.0000 -5.0759 -40.5504 -0.5585
-10.2540 17.9411 5.5195 -35.8524 77.7515 -20.3973 0.0000 0.0000 0.0000 -5.5409 -0.9740 -29.2544 2.8204 10.3985 30.2772 0.4926 -0.5846 -13.0689 0.4961 -4.5156 -12.5318 0.0000 0.0000 0.0000 17.6752 11.4336 -29.0108 -1.9576 -8.7773 25.1010 -0.0962 4.2891 -5.8670 -0.0151 0.7933 -2.1802 -3.5422 1.4833 4.1312 2.1888 2.0047 5.6636 4.2305 0.8791 3.3444 4.4227 1.9894 -12.1401 -5.3047 6.4524 42.2351 -1.9216 3.1926 18.1687 -0.0000 -0.0000 0.0000 -100.4480 -22.2160 75.2248 19.6340 -30.1988 -5.3460 -0.0000 0.0000 -49.2708 2.7970 54.8050 2.2863 -7.1250 0.0000 -0.0000 -76.7832 72.7848 -58.6759 -0.0000 -0.0000 0.0000 96.6255 19.6633 57.6874 -21.3104 32.1889 -6.2145 0.0000 -0.0000 -42.0744 -32.5456 -9.1405 5.7889 7.1250 -0.0000 -0.0000 -4.9715 -40.7365 -0.5241
-10.2525 17.9403 5.5130 -36.4917 78.0284 -21.0300 0.0000 0.0000 0.0000 -5.7040 -0.8955 -29.4488 2.8158 10.3907 30.2514 0.4803 -0.5479 -12.9134 0.6777 -5.2640 -14.6631 0.0000 0.0000 0.0000 17.5980 11.3230 -29.0414 -1.9665 -8.7959 25.1589 -0.1034 4.1155 -5.9928 -0.0128 0.7303 -2.0070 -3.4268 1.4612 4.1191 2.1783 1.9798 5.6996 4.1562 0.8702 3.3944 4.4206 1.9352 -12.2132 -5.2451 6.3441 42.2560 -1.9122 3.1563 18.1877 -0.0000 -0.0000 0.0000 -100.5572 -22.3701 74.4976 19.2731 -29.7566 -5.1657 -0.0000 0.0000 -46.8224 -2.6339 54.5092 -2.1451 -7.1250 0.0000 -0.0000 -78.2038 70.8191 -57.6755 -0.0000 -0.0000 0.0000 96.6638 19.6990 57.7364 -21.3574 32.2432 -6.2395 0.0000 -0.0000 -42.3194 -32.6437 -8.9756 5.7074 7.1250 -0.0000 -0.0000 -5.0593 -40.5529 -0.5564
-10.2512 17.9373 5.5074 -37.3581 78.2670 -21.8973 0.0000 0.0000 0.0000 -5.8110 -0.7829 -29.6350 2.8113 10.3831 30.2264 0.4657 -0.5141 -12.7235 0.8770 -5.9702 -16.6981 0.0000 0.0000 0.0000 17.6300 11.0885 -29.0958 -1.9729 -8.8094 25.2010 -0.1050 4.0604 -6.0163 -0.0106 0.6663 -1.8309 -3.3165 1.4523 4.1462 2.2199 1.9701 5.7189 4.1372 0.8690 3.4019 4.3563 1.8798 -12.2652 -5.1701 6.2481 42.2693 -1.8818 3.1180 18.1940 0.0000 0.0000 0.0000 -100.3661 -22.2566 75.6769 19.7805 -30.3770 -5.4199 -0.0000 0.0000 -50.6453 7.5412 55.5692 6.2315 -7.1250 0.0000 -0.0000 -77.8707 74.6227 -61.8634 0.0000 0.0000 0.0000 96.6580 19.6766 57.7579 -21.3807 32.2700 -6.2519 0.0000 -0.0000 -42.3486 -32.6759 -8.8781 5.6532 7.1250 -0.0000 -0.0000 -5.0879 -40.4416 -0.5735
